<svg width="10" height="10" viewBox="0 0 10 10" fill="none" xmlns="http://www.w3.org/2000/svg">
<path d="M6.07109 5.00005L9.85709 1.26805C9.95945 1.13275 10.0092 0.964872 9.99704 0.795645C9.9849 0.626419 9.91171 0.467362 9.79109 0.348053C9.66864 0.227867 9.50739 0.155217 9.33624 0.143123C9.16509 0.131029 8.99522 0.180281 8.85709 0.282053L5.07109 4.01405L1.28609 0.282053C1.20306 0.173614 1.09091 0.0910254 0.962713 0.0439261C0.834518 -0.00317315 0.695572 -0.0128403 0.56209 0.0160529C0.429091 0.0439708 0.306917 0.109524 0.210117 0.204906C0.113316 0.300288 0.0459674 0.421481 0.0160896 0.554053C-0.0127391 0.686182 -0.00267616 0.823834 0.0450618 0.950366C0.0927998 1.0769 0.176169 1.18689 0.28509 1.26705L4.07109 5.00005L0.28609 8.73205C0.177169 8.81221 0.0937998 8.92221 0.0460618 9.04874C-0.00167616 9.17527 -0.0117391 9.31292 0.0170896 9.44505C0.0469674 9.57763 0.114316 9.69882 0.211117 9.7942C0.307917 9.88958 0.430091 9.95514 0.56309 9.98305C0.696422 10.0117 0.835161 10.002 0.963158 9.95488C1.09115 9.90779 1.20314 9.82531 1.28609 9.71705L5.07109 5.98605L8.85709 9.71805C8.99511 9.81995 9.16491 9.86938 9.33605 9.85747C9.5072 9.84556 9.66852 9.77309 9.79109 9.65305C9.91171 9.53374 9.9849 9.37469 9.99704 9.20546C10.0092 9.03623 9.95945 8.86836 9.85709 8.73305L6.07109 5.00005Z" fill="#526B7A"/>
</svg>
